<mxfile host="app.diagrams.net" modified="2023-04-28T16:08:19.738Z" agent="Mozilla/5.0 (Windows NT 10.0; Win64; x64; rv:109.0) Gecko/20100101 Firefox/112.0" etag="3DBw8K2GFpOcZBA9h1Ss" version="21.2.3" type="device">
  <diagram name="Page-1" id="1rfseUxClpkkoTdwEQ6H">
    <mxGraphModel dx="1434" dy="731" grid="1" gridSize="10" guides="1" tooltips="1" connect="1" arrows="1" fold="1" page="1" pageScale="1" pageWidth="1200" pageHeight="1600" math="0" shadow="0">
      <root>
        <mxCell id="0" />
        <mxCell id="1" parent="0" />
        <mxCell id="qdbIjFFEpjGlyfwt6w0l-1" value="" style="edgeStyle=orthogonalEdgeStyle;rounded=0;orthogonalLoop=1;jettySize=auto;html=1;" edge="1" parent="1" source="x7yo1bF5Ih4Q695Gc91e-1" target="x7yo1bF5Ih4Q695Gc91e-26">
          <mxGeometry relative="1" as="geometry" />
        </mxCell>
        <mxCell id="x7yo1bF5Ih4Q695Gc91e-1" value="&lt;div&gt;Start&lt;/div&gt;" style="strokeWidth=2;html=1;shape=mxgraph.flowchart.terminator;whiteSpace=wrap;" parent="1" vertex="1">
          <mxGeometry x="550" y="40" width="100" height="60" as="geometry" />
        </mxCell>
        <mxCell id="x7yo1bF5Ih4Q695Gc91e-21" value="&lt;div&gt;End&lt;/div&gt;" style="strokeWidth=2;html=1;shape=mxgraph.flowchart.terminator;whiteSpace=wrap;" parent="1" vertex="1">
          <mxGeometry x="550" y="960" width="100" height="60" as="geometry" />
        </mxCell>
        <mxCell id="qdbIjFFEpjGlyfwt6w0l-2" value="" style="edgeStyle=orthogonalEdgeStyle;rounded=0;orthogonalLoop=1;jettySize=auto;html=1;" edge="1" parent="1" source="x7yo1bF5Ih4Q695Gc91e-26" target="x7yo1bF5Ih4Q695Gc91e-27">
          <mxGeometry relative="1" as="geometry" />
        </mxCell>
        <mxCell id="x7yo1bF5Ih4Q695Gc91e-26" value="row = 0" style="rounded=1;whiteSpace=wrap;html=1;absoluteArcSize=1;arcSize=14;strokeWidth=2;" parent="1" vertex="1">
          <mxGeometry x="550" y="140" width="100" height="60" as="geometry" />
        </mxCell>
        <mxCell id="x7yo1bF5Ih4Q695Gc91e-47" style="edgeStyle=orthogonalEdgeStyle;rounded=0;orthogonalLoop=1;jettySize=auto;html=1;exitX=0;exitY=0.5;exitDx=0;exitDy=0;exitPerimeter=0;entryX=0;entryY=0.5;entryDx=0;entryDy=0;entryPerimeter=0;" parent="1" source="x7yo1bF5Ih4Q695Gc91e-27" target="x7yo1bF5Ih4Q695Gc91e-21" edge="1">
          <mxGeometry relative="1" as="geometry">
            <Array as="points">
              <mxPoint x="490" y="290" />
              <mxPoint x="490" y="990" />
            </Array>
          </mxGeometry>
        </mxCell>
        <mxCell id="qdbIjFFEpjGlyfwt6w0l-3" value="" style="edgeStyle=orthogonalEdgeStyle;rounded=0;orthogonalLoop=1;jettySize=auto;html=1;" edge="1" parent="1" source="x7yo1bF5Ih4Q695Gc91e-27" target="x7yo1bF5Ih4Q695Gc91e-28">
          <mxGeometry relative="1" as="geometry" />
        </mxCell>
        <mxCell id="x7yo1bF5Ih4Q695Gc91e-27" value="row &amp;lt; 4" style="strokeWidth=2;html=1;shape=mxgraph.flowchart.decision;whiteSpace=wrap;" parent="1" vertex="1">
          <mxGeometry x="550" y="240" width="100" height="100" as="geometry" />
        </mxCell>
        <mxCell id="qdbIjFFEpjGlyfwt6w0l-4" value="" style="edgeStyle=orthogonalEdgeStyle;rounded=0;orthogonalLoop=1;jettySize=auto;html=1;" edge="1" parent="1" source="x7yo1bF5Ih4Q695Gc91e-28" target="x7yo1bF5Ih4Q695Gc91e-29">
          <mxGeometry relative="1" as="geometry" />
        </mxCell>
        <mxCell id="x7yo1bF5Ih4Q695Gc91e-28" value="col = 0" style="rounded=1;whiteSpace=wrap;html=1;absoluteArcSize=1;arcSize=14;strokeWidth=2;" parent="1" vertex="1">
          <mxGeometry x="550" y="380" width="100" height="60" as="geometry" />
        </mxCell>
        <mxCell id="x7yo1bF5Ih4Q695Gc91e-39" style="edgeStyle=orthogonalEdgeStyle;rounded=0;orthogonalLoop=1;jettySize=auto;html=1;exitX=0.5;exitY=1;exitDx=0;exitDy=0;exitPerimeter=0;entryX=0.5;entryY=0;entryDx=0;entryDy=0;entryPerimeter=0;" parent="1" source="x7yo1bF5Ih4Q695Gc91e-29" target="x7yo1bF5Ih4Q695Gc91e-30" edge="1">
          <mxGeometry relative="1" as="geometry" />
        </mxCell>
        <mxCell id="x7yo1bF5Ih4Q695Gc91e-45" style="edgeStyle=orthogonalEdgeStyle;rounded=0;orthogonalLoop=1;jettySize=auto;html=1;exitX=0;exitY=0.5;exitDx=0;exitDy=0;exitPerimeter=0;entryX=0;entryY=0.5;entryDx=0;entryDy=0;" parent="1" source="x7yo1bF5Ih4Q695Gc91e-29" target="x7yo1bF5Ih4Q695Gc91e-40" edge="1">
          <mxGeometry relative="1" as="geometry">
            <Array as="points">
              <mxPoint x="530" y="530" />
              <mxPoint x="530" y="890" />
            </Array>
          </mxGeometry>
        </mxCell>
        <mxCell id="x7yo1bF5Ih4Q695Gc91e-29" value="col &amp;lt; 7" style="strokeWidth=2;html=1;shape=mxgraph.flowchart.decision;whiteSpace=wrap;" parent="1" vertex="1">
          <mxGeometry x="550" y="480" width="100" height="100" as="geometry" />
        </mxCell>
        <mxCell id="x7yo1bF5Ih4Q695Gc91e-34" value="" style="edgeStyle=orthogonalEdgeStyle;rounded=0;orthogonalLoop=1;jettySize=auto;html=1;" parent="1" source="x7yo1bF5Ih4Q695Gc91e-30" target="x7yo1bF5Ih4Q695Gc91e-31" edge="1">
          <mxGeometry relative="1" as="geometry" />
        </mxCell>
        <mxCell id="x7yo1bF5Ih4Q695Gc91e-35" value="" style="edgeStyle=orthogonalEdgeStyle;rounded=0;orthogonalLoop=1;jettySize=auto;html=1;" parent="1" source="x7yo1bF5Ih4Q695Gc91e-30" target="x7yo1bF5Ih4Q695Gc91e-32" edge="1">
          <mxGeometry relative="1" as="geometry" />
        </mxCell>
        <mxCell id="x7yo1bF5Ih4Q695Gc91e-30" value="row &amp;lt; 2&lt;br&gt;&amp;amp;&amp;amp;&lt;br&gt;col &amp;lt; 3" style="strokeWidth=2;html=1;shape=mxgraph.flowchart.decision;whiteSpace=wrap;" parent="1" vertex="1">
          <mxGeometry x="550" y="620" width="100" height="100" as="geometry" />
        </mxCell>
        <mxCell id="x7yo1bF5Ih4Q695Gc91e-36" style="edgeStyle=orthogonalEdgeStyle;rounded=0;orthogonalLoop=1;jettySize=auto;html=1;exitX=1;exitY=0.5;exitDx=0;exitDy=0;entryX=0.5;entryY=1;entryDx=0;entryDy=0;" parent="1" source="x7yo1bF5Ih4Q695Gc91e-31" target="x7yo1bF5Ih4Q695Gc91e-33" edge="1">
          <mxGeometry relative="1" as="geometry" />
        </mxCell>
        <mxCell id="x7yo1bF5Ih4Q695Gc91e-31" value="print&lt;br&gt;&quot;* &quot;" style="shape=parallelogram;html=1;strokeWidth=2;perimeter=parallelogramPerimeter;whiteSpace=wrap;rounded=1;arcSize=12;size=0.23;" parent="1" vertex="1">
          <mxGeometry x="550" y="760" width="100" height="60" as="geometry" />
        </mxCell>
        <mxCell id="x7yo1bF5Ih4Q695Gc91e-37" style="edgeStyle=orthogonalEdgeStyle;rounded=0;orthogonalLoop=1;jettySize=auto;html=1;exitX=1;exitY=0.5;exitDx=0;exitDy=0;entryX=0.5;entryY=1;entryDx=0;entryDy=0;" parent="1" source="x7yo1bF5Ih4Q695Gc91e-32" target="x7yo1bF5Ih4Q695Gc91e-33" edge="1">
          <mxGeometry relative="1" as="geometry">
            <Array as="points">
              <mxPoint x="800" y="670" />
            </Array>
          </mxGeometry>
        </mxCell>
        <mxCell id="x7yo1bF5Ih4Q695Gc91e-32" value="print&lt;br&gt;&quot;- &quot;" style="shape=parallelogram;html=1;strokeWidth=2;perimeter=parallelogramPerimeter;whiteSpace=wrap;rounded=1;arcSize=12;size=0.23;" parent="1" vertex="1">
          <mxGeometry x="680" y="640" width="100" height="60" as="geometry" />
        </mxCell>
        <mxCell id="x7yo1bF5Ih4Q695Gc91e-38" style="edgeStyle=orthogonalEdgeStyle;rounded=0;orthogonalLoop=1;jettySize=auto;html=1;exitX=0;exitY=0.5;exitDx=0;exitDy=0;entryX=1;entryY=0.5;entryDx=0;entryDy=0;entryPerimeter=0;" parent="1" source="x7yo1bF5Ih4Q695Gc91e-33" target="x7yo1bF5Ih4Q695Gc91e-29" edge="1">
          <mxGeometry relative="1" as="geometry" />
        </mxCell>
        <mxCell id="x7yo1bF5Ih4Q695Gc91e-33" value="col++" style="rounded=1;whiteSpace=wrap;html=1;absoluteArcSize=1;arcSize=14;strokeWidth=2;" parent="1" vertex="1">
          <mxGeometry x="750" y="500" width="100" height="60" as="geometry" />
        </mxCell>
        <mxCell id="x7yo1bF5Ih4Q695Gc91e-42" style="edgeStyle=orthogonalEdgeStyle;rounded=0;orthogonalLoop=1;jettySize=auto;html=1;exitX=1;exitY=0.5;exitDx=0;exitDy=0;entryX=0.5;entryY=1;entryDx=0;entryDy=0;" parent="1" source="x7yo1bF5Ih4Q695Gc91e-40" target="x7yo1bF5Ih4Q695Gc91e-41" edge="1">
          <mxGeometry relative="1" as="geometry" />
        </mxCell>
        <mxCell id="x7yo1bF5Ih4Q695Gc91e-40" value="&lt;div&gt;print&lt;/div&gt;&lt;div&gt;&quot;\n&quot;&lt;br&gt;&lt;/div&gt;" style="shape=parallelogram;html=1;strokeWidth=2;perimeter=parallelogramPerimeter;whiteSpace=wrap;rounded=1;arcSize=12;size=0.23;" parent="1" vertex="1">
          <mxGeometry x="550" y="860" width="100" height="60" as="geometry" />
        </mxCell>
        <mxCell id="x7yo1bF5Ih4Q695Gc91e-43" style="edgeStyle=orthogonalEdgeStyle;rounded=0;orthogonalLoop=1;jettySize=auto;html=1;exitX=0;exitY=0.5;exitDx=0;exitDy=0;entryX=1;entryY=0.5;entryDx=0;entryDy=0;entryPerimeter=0;" parent="1" source="x7yo1bF5Ih4Q695Gc91e-41" target="x7yo1bF5Ih4Q695Gc91e-27" edge="1">
          <mxGeometry relative="1" as="geometry" />
        </mxCell>
        <mxCell id="x7yo1bF5Ih4Q695Gc91e-41" value="row++" style="rounded=1;whiteSpace=wrap;html=1;absoluteArcSize=1;arcSize=14;strokeWidth=2;" parent="1" vertex="1">
          <mxGeometry x="820" y="260" width="100" height="60" as="geometry" />
        </mxCell>
        <mxCell id="qdbIjFFEpjGlyfwt6w0l-5" value="True" style="text;html=1;strokeColor=none;fillColor=none;align=center;verticalAlign=middle;whiteSpace=wrap;rounded=0;" vertex="1" parent="1">
          <mxGeometry x="600" y="340" width="60" height="30" as="geometry" />
        </mxCell>
        <mxCell id="qdbIjFFEpjGlyfwt6w0l-6" value="True" style="text;html=1;strokeColor=none;fillColor=none;align=center;verticalAlign=middle;whiteSpace=wrap;rounded=0;" vertex="1" parent="1">
          <mxGeometry x="600" y="580" width="60" height="30" as="geometry" />
        </mxCell>
        <mxCell id="qdbIjFFEpjGlyfwt6w0l-7" value="True" style="text;html=1;strokeColor=none;fillColor=none;align=center;verticalAlign=middle;whiteSpace=wrap;rounded=0;" vertex="1" parent="1">
          <mxGeometry x="600" y="720" width="60" height="30" as="geometry" />
        </mxCell>
        <mxCell id="qdbIjFFEpjGlyfwt6w0l-8" value="False" style="text;html=1;strokeColor=none;fillColor=none;align=center;verticalAlign=middle;whiteSpace=wrap;rounded=0;" vertex="1" parent="1">
          <mxGeometry x="500" y="500" width="60" height="30" as="geometry" />
        </mxCell>
        <mxCell id="qdbIjFFEpjGlyfwt6w0l-11" value="False" style="text;html=1;strokeColor=none;fillColor=none;align=center;verticalAlign=middle;whiteSpace=wrap;rounded=0;" vertex="1" parent="1">
          <mxGeometry x="490" y="260" width="60" height="30" as="geometry" />
        </mxCell>
      </root>
    </mxGraphModel>
  </diagram>
</mxfile>
